PathFileType	4	(X/Y/Z)	RBDS015\RBDS015runT25.trc
DataRate	CameraRate	NumFrames	NumMarkers	Units	OrigDataRate	OrigDataStartFrame	OrigNumFrames
150.000000	150.000000	6	33	mm	150.000000	562	4500
Frame#	Time	L.ASIS			L.Heel.Bottom			L.Heel.Lateral			L.Heel.Top			L.Iliac.Crest			L.MT1			L.MT5			L.PSIS			L.Shank.Bottom.Lateral			L.Shank.Bottom.Medial			L.Shank.Top.Lateral			L.Shank.Top.Medial			L.Thigh.Bottom.Lateral			L.Thigh.Bottom.Medial			L.Thigh.Top.Lateral			L.Thigh.Top.Medial			R.ASIS			R.ASY			R.Heel.Bottom			R.Heel.Lateral			R.Heel.Top			R.Iliac.Crest			R.MT1			R.MT5			R.PSIS			R.Shank.Bottom.Lateral			R.Shank.Bottom.Medial			R.Shank.Top.Lateral			R.Shank.Top.Medial			R.Thigh.Bottom.Lateral			R.Thigh.Bottom.Medial			R.Thigh.Top.Lateral			R.Thigh.Top.Medial			
		X1	Y1	Z1	X2	Y2	Z2	X3	Y3	Z3	X4	Y4	Z4	X5	Y5	Z5	X6	Y6	Z6	X7	Y7	Z7	X8	Y8	Z8	X9	Y9	Z9	X10	Y10	Z10	X11	Y11	Z11	X12	Y12	Z12	X13	Y13	Z13	X14	Y14	Z14	X15	Y15	Z15	X16	Y16	Z16	X17	Y17	Z17	X18	Y18	Z18	X19	Y19	Z19	X20	Y20	Z20	X21	Y21	Z21	X22	Y22	Z22	X23	Y23	Z23	X24	Y24	Z24	X25	Y25	Z25	X26	Y26	Z26	X27	Y27	Z27	X28	Y28	Z28	X29	Y29	Z29	X30	Y30	Z30	X31	Y31	Z31	X32	Y32	Z32	X33	Y33	Z33	

563	3.746666666666667	2187.981049889578	1063.894198852126	879.715068459161	2191.423147645884	26.68573011676841	962.3731402267751	2211.295031262199	44.59536423288503	918.3993754893919	2194.982510727744	68.32691067773334	961.2367121550316	2111.103155053306	1153.70670056511	836.4018493948158	2398.338794791504	71.05400352841859	987.5509308540869	2364.109104415247	50.4967334290798	879.4042194288452	2011.76385235822	1108.188299515505	953.2664405029165	2242.699157386979	195.0890615288687	892.3098197029537	2198.278408917632	192.6703327236372	917.9359062497849	2233.347929258079	273.5468427326645	876.1634124094671	2187.587901801142	275.5164884318494	903.5886772078998	2208.588959690934	681.751148684992	843.9956100597312	2150.971953664594	660.0410430454907	872.663929503801	2163.892876298873	781.5554842011794	828.3474596150216	2103.562392838325	758.6312342447718	860.7178015766038	2197.705860513687	1053.694937591372	1100.670810555582	1667.67926214318	186.6603942460472	1085.105329608841	1558.00440357525	342.9867055446928	1080.237964768567	1582.111560311642	320.3390076463593	1121.988269087341	1604.466161793477	347.4431646112229	1084.186660907731	2138.84505065436	1154.165148094151	1144.140072143625	1638.12539264387	150.3618668350974	1033.904707210633	1607.76477710858	175.3198102514272	1145.482881042372	2018.558567629541	1112.249633961408	1047.666367277163	1722.191464255134	343.3803202713925	1135.377652447345	1693.435478504094	384.4990996820513	1111.376201742569	1785.207665962719	394.562840866012	1143.669367712868	1756.317189219892	433.5721245872787	1119.872954402961	2051.91832935757	695.4077877772239	1153.762159845895	1993.300376934331	702.3993606500738	1111.015036642526	2054.818636933687	804.0756355767099	1163.207854185791	1998.559808782383	811.6096868520576	1123.189018080566	
564	3.753333333333333	2186.926403105304	1057.934305830708	879.8668653932341	2176.253351225112	27.2710729880852	962.7513276130926	2196.824269167064	44.86520626833895	919.012109677309	2181.60188277467	68.83277060053027	962.1354480336247	2109.266813644606	1146.026183551593	836.4899179364678	2385.336568483515	63.58584750450495	988.2870963110978	2350.107392489594	46.00616064665756	879.6452815098816	2010.374447512013	1100.896819287507	953.7790629330141	2235.950919770476	192.3189850550291	892.9794523756625	2191.004817705169	191.7959242334652	917.6367782768975	2229.975891131392	270.9668582178287	876.3814570262689	2183.830809313041	274.8870176657792	902.8387361807891	2212.71016195832	678.522327126141	843.8144889643985	2155.201017839123	655.7926666840902	871.97810956518	2166.563710552777	777.689161313217	828.273059858005	2106.387929709263	753.6904469692622	860.2006596059771	2197.16545664597	1048.696972984509	1101.113292392499	1666.525134129522	190.7103151125372	1087.383354643518	1559.652823567647	348.9431288410458	1082.925000799314	1583.56292954922	325.8229849498504	1124.529799815171	1606.230015927839	352.445837285143	1086.582319181657	2137.400320476518	1147.637404212935	1144.646042535569	1636.058756783785	154.8683887877149	1036.265558268717	1606.714126788257	180.4384363756201	1148.006888954591	2017.370063258005	1104.659807060148	1047.936224791041	1724.232605975105	345.323489353481	1137.490587585016	1696.627441669497	387.2981642224383	1113.602596080154	1788.733256523103	394.6646629664036	1145.770696951749	1760.908709354858	434.5139359499051	1122.063730931165	2056.433553092405	688.500246687911	1154.96188219755	1998.002574260288	694.3031783961644	1111.784901580626	2057.426339018416	797.3213685634372	1164.05752403155	2001.281338875987	803.6848404093028	1123.665237313097	
565	3.76	2185.651821059769	1051.638127447236	880.1125599921567	2160.40802630116	28.1149169006266	963.1650555126772	2181.597260997219	45.53578031915593	919.6810553728893	2167.341124824336	69.58987236379629	963.1041507779555	2107.257471786873	1137.843832088869	836.6896937801242	2371.330850429466	57.28254285301983	989.0375535189347	2335.214387652226	42.55750213841314	879.922184469426	2008.802714415415	1093.413756134675	954.3697847855253	2228.560237263948	190.1383769625495	893.7627033657359	2183.136470397681	191.6081406330351	917.3882257361132	2226.150653324204	268.8662932374594	876.7218824847657	2179.656120231179	274.8272567819993	902.1285056292788	2216.558705395631	675.2790764047229	843.5328593394896	2159.234474074858	651.5774369244485	871.3505800183948	2168.966227846504	773.7998018745511	828.0967061183719	2109.017110910389	748.7634217136024	859.7112938673781	2196.422048255696	1043.423965434129	1101.68809477365	1666.423340501881	194.4602245364676	1089.606838511823	1562.30974651746	354.5185705070592	1085.516739183203	1586.032314255551	330.9615037264201	1126.989384106347	1608.9888783718	357.1383761867559	1088.910630177046	2135.683108023258	1140.547817506205	1145.263030963843	1635.029087737289	159.0751209669023	1038.588372654669	1606.730404796479	185.2502306125494	1150.483904370763	2015.939433944748	1096.739074339088	1048.216738684877	1727.166939916493	347.0024844108588	1139.542630794158	1700.698281290282	389.7826147505701	1115.751078817798	1793.032326608304	394.5343481958201	1147.827940506668	1766.274852103962	435.161885949894	1124.194464761943	2061.042314494404	681.4930491878597	1156.126199650877	2002.813472941424	686.0642232528996	1112.49453757166	2060.01452678305	790.4456564139545	1164.845322767328	2004.049396106663	795.5851834535151	1124.002962797911	
566	3.766666666666667	2184.157311538524	1045.096206870687	880.4171436000387	2144.171778685842	29.12698456482686	963.5955864922601	2165.879973163454	46.51533278084824	920.3759066447293	2152.434202227442	70.51385050622901	964.0996687397753	2105.093822438119	1129.218686878919	837.0001629158368	2356.553437108102	52.3203561610549	989.7528249171618	2319.685278399481	40.1714456929876	880.2205575095264	2007.06037787443	1085.86978965974	955.0722031516996	2220.538115245954	188.54522285715	894.6159428858462	2174.718787173028	192.053527290601	917.2018378292885	2221.784409475354	267.2304305051383	877.1643088797776	2175.012158752514	275.2685070222198	901.497169291259	2219.948611176273	672.0163895928162	843.1953822747456	2162.867166239871	647.4311607924188	870.828187186129	2170.983769031423	769.9158689986641	827.8613108417725	2111.316003432712	743.9263314375953	859.3013747825223	2195.482359908337	1037.90284135633	1102.388903874722	1667.425280077902	197.9067844156188	1091.747809123052	1565.943829295138	359.6598827215916	1087.988340022391	1589.506270629837	335.7230117605545	1129.345242823809	1612.711468223306	361.490869776886	1091.140611551136	2133.680203139781	1132.940273479448	1145.993192230103	1635.104034413124	162.9548231656113	1040.861610839301	1607.885389747603	189.7286492172396	1152.905986785141	2014.278498422344	1088.639517741389	1048.533410765	1731.009863848393	348.4241993907979	1141.500843652695	1705.650929605047	391.9635036142637	1117.802297873365	1798.119512082584	394.1929274174209	1149.809200039851	1772.41888460663	435.5429392177497	1126.248330177335	2065.770681447056	674.4817154809332	1157.248539193833	2007.736053170806	677.7859754416526	1113.174790705624	2062.616200073557	783.5312964461235	1165.569918172234	2006.876380904868	787.406908204088	1124.241248268253	
567	3.773333333333333	2182.456154747803	1038.413382766769	880.7400422309834	2127.759621217961	30.21184839342429	964.0196651104094	2149.880338692805	47.69002242368673	921.0605400474103	2137.075512618737	71.51478091697902	965.0731951131702	2102.793030343095	1120.244979078265	837.4136757274183	2341.210094205711	48.72955496031069	990.3878338719632	2303.734655535953	38.76107180310959	880.5217436326468	2005.172186777721	1078.407125310429	955.9118656630253	2211.863787868254	187.4683818777355	895.4877782955868	2165.75952413819	193.0100910319469	917.0830931842349	2216.756482278306	265.9852447320654	877.6775347495094	2169.810721581851	276.0840302673834	900.9770382224692	2222.695393273926	668.7116758952976	842.8533218073792	2165.887171567154	643.3716014658413	870.4499726878231	2172.507398717353	766.0520059781974	827.6154176997239	2113.150255951444	739.2426609981187	859.0174111755474	2194.360136711779	1032.162260896946	1103.210338183139	1669.576199927866	201.0480356144413	1093.774845037106	1570.504297120555	364.3108430710412	1090.322028783759	1593.95477496521	340.0702022363906	1131.579111093926	1617.347240317924	365.4676510755236	1093.244042226125	2131.377771941633	1124.892235999213	1146.82878754761	1636.350694797309	166.4793346796381	1043.067098936858	1610.247223172566	193.8403533942746	1155.25929963493	2012.414374282079	1080.535182848484	1048.909123928256	1735.765225499066	349.5959450452253	1143.333857742035	1711.475979465365	393.8517817237343	1119.739886910503	1804.000309664944	393.662073957886	1151.682967614926	1779.332709100533	435.6850002166479	1128.209638473113	2070.647234809473	667.5644603447024	1158.328413445266	2012.781440948145	669.5721726344935	1113.858506780915	2065.26878226552	776.6650207071852	1166.236818756872	2009.778230513143	779.2470861124208	1124.427418013346	
568	3.78	2180.574035134893	1031.704865703637	881.0429387003251	2111.313244700719	31.27908897307064	964.4129085402028	2133.742891341545	48.93841432398879	921.6975915443518	2121.413574253812	72.50662384067455	965.97628522703	2100.37277836033	1111.058634016011	837.9148971014096	2325.470384434931	46.41014669525492	990.9074287081768	2287.527896979308	38.15955836486962	880.8048399699826	2003.174852370498	1071.173617894528	956.8992107274959	2202.495902407562	186.7813002934666	896.3267779380211	2156.236711629635	194.3044982536635	917.0315793452221	2210.932544804789	265.0103697140457	878.225069050372	2163.941970975355	277.1056931417372	900.5902228690895	2224.629132326381	665.3316791683327	842.5565866471148	2168.091957573292	639.4020650594963	870.2408072681141	2173.442145953883	762.2127582076586	827.4059606887903	2114.394169374738	734.7623257887093	858.8937352374282	2193.075438313248	1026.23529345079	1104.147204768795	1672.910647158472	203.8788319382936	1095.655382661402	1575.924940001428	368.4125763572821	1092.505307436861	1599.332031727392	343.9586993256293	1133.67507059142	1622.830473398326	369.0271319557193	1095.196477409276	2128.767286311768	1116.522875392163	1147.751526487489	1638.830974152375	169.6175272487714	1045.179944272742	1613.871492564153	197.5432452809506	1157.522530093799	2010.388133830113	1072.613212869992	1049.359403808679	1741.423533762071	350.5232318210278	1145.014205427734	1718.149803771126	395.4552245690167	1121.550971553561	1810.668057630508	392.9630539630227	1153.42097292588	1786.9940555812	435.6145818158391	1130.064494274468	2075.701069693127	660.8401684053968	1159.372289154448	2017.968081731875	661.5241912470751	1114.579556220191	2068.011706281694	769.9361569595137	1166.858967647556	2012.773777363787	771.2009521481535	1124.614782991113	
